# xmcd
#
# Track frame offsets: 
#        150
#        12529
#        23968
#        33692
#        44057
#        54751
#        66734
#        78585
#        92819
#        105173
#        118178
#        130361
#        145454
#        153233
#        166651
#
# Disc length: 2390 seconds
#
# Revision: 0
# Processed by: cddbd v1.5.2PL0 Copyright (c) Steve Scherf et al.
# Submitted via: ExactAudioCopy v1.3
#
DISCID=d109540f
DTITLE=Various Artist - Simply Country - CD10
DYEAR=2012
DGENRE=Country
TTITLE0=Porter Wagoner - In 
TTITLE1=Patsy Cline - Crazy Dreams
TTITLE2=Merle Travis - Sixteen Tons
TTITLE3=Ferlin Husky - Wings Of A Dove
TTITLE4=George Jones - Life To Go
TTITLE5=Bob Wills and His Texas Playboys - New San Antonio Rose
TTITLE6=Ernest Tubb - Walking The Floor Over You
TTITLE7=The Carter Family - Will The Circle Be Unbroken?
TTITLE8=Hank Thompson and His Brazos Valley Boys - The Wild Side Of Life
TTITLE9=Carl Perkins - Let The Jukebox Keep On Playing
TTITLE10=Waylon Jennings - Don't Think Twice, It's Allright
TTITLE11=Jimmie Rodgers - In The Jailhouse Now
TTITLE12=Jerry Lee Lewis - Waiting For A Train
TTITLE13=The Stanley Brothers - I'm A Man Of Constant Sorrow
TTITLE14=The Flatlanders - Dallas
EXTD=
EXTT0=
EXTT1=
EXTT2=
EXTT3=
EXTT4=
EXTT5=
EXTT6=
EXTT7=
EXTT8=
EXTT9=
EXTT10=
EXTT11=
EXTT12=
EXTT13=
EXTT14=
PLAYORDER=
